# This file uses centimeters as units for non-parametric coordinates.

mtllib connection3.mtl
g default
v 0.768076 -0.879320 -0.443450
v 0.443450 -0.879320 -0.768076
v 0.000000 -0.879320 -0.886899
v -0.443450 -0.879320 -0.768076
v -0.768076 -0.879320 -0.443450
v -0.886899 -0.879320 0.000000
v -0.768076 -0.879320 0.443450
v -0.443450 -0.879320 0.768076
v 0.000000 -0.879320 0.886899
v 0.443450 -0.879320 0.768076
v 0.768076 -0.879320 0.443450
v 0.886899 -0.879320 0.000000
v 0.566688 -0.522808 -0.327178
v 0.327178 -0.522808 -0.566688
v 0.000000 -0.522808 -0.654356
v -0.327178 -0.522808 -0.566688
v -0.566688 -0.522808 -0.327178
v -0.654356 -0.522808 0.000000
v -0.566688 -0.522808 0.327178
v -0.327178 -0.522808 0.566688
v 0.000000 -0.522808 0.654356
v 0.327178 -0.522808 0.566688
v 0.566688 -0.522808 0.327178
v 0.654356 -0.522808 0.000000
v 0.467974 0.000000 -0.270185
v 0.270185 0.000000 -0.467974
v 0.000000 0.000000 -0.540370
v -0.270185 0.000000 -0.467974
v -0.467974 0.000000 -0.270185
v -0.540370 0.000000 0.000000
v -0.467974 0.000000 0.270185
v -0.270185 0.000000 0.467974
v 0.000000 0.000000 0.540370
v 0.270185 0.000000 0.467974
v 0.467974 0.000000 0.270185
v 0.540370 0.000000 0.000000
v 0.566688 0.522808 -0.327178
v 0.327178 0.522808 -0.566688
v 0.000000 0.522808 -0.654356
v -0.327178 0.522808 -0.566688
v -0.566688 0.522808 -0.327178
v -0.654356 0.522808 0.000000
v -0.566688 0.522808 0.327178
v -0.327178 0.522808 0.566688
v 0.000000 0.522808 0.654356
v 0.327178 0.522808 0.566688
v 0.566688 0.522808 0.327178
v 0.654356 0.522808 0.000000
v 0.768076 0.879320 -0.443450
v 0.443450 0.879320 -0.768076
v 0.000000 0.879320 -0.886899
v -0.443450 0.879320 -0.768076
v -0.768076 0.879320 -0.443450
v -0.886899 0.879320 0.000000
v -0.768076 0.879320 0.443450
v -0.443450 0.879320 0.768076
v 0.000000 0.879320 0.886899
v 0.443450 0.879320 0.768076
v 0.768076 0.879320 0.443450
v 0.886899 0.879320 0.000000
v 0.000000 -0.879320 0.000000
v 0.000000 0.879320 0.000000
vt 0.635316 0.078125
vt 0.578125 0.020934
vt 0.500000 0.000000
vt 0.421875 0.020934
vt 0.364684 0.078125
vt 0.343750 0.156250
vt 0.364684 0.234375
vt 0.421875 0.291566
vt 0.500000 0.312500
vt 0.578125 0.291566
vt 0.635316 0.234375
vt 0.656250 0.156250
vt 0.375000 0.312500
vt 0.395833 0.312500
vt 0.416667 0.312500
vt 0.437500 0.312500
vt 0.458333 0.312500
vt 0.479167 0.312500
vt 0.500000 0.312500
vt 0.520833 0.312500
vt 0.541667 0.312500
vt 0.562500 0.312500
vt 0.583333 0.312500
vt 0.604167 0.312500
vt 0.625000 0.312500
vt 0.375000 0.406485
vt 0.395833 0.406485
vt 0.416667 0.406485
vt 0.437500 0.406485
vt 0.458333 0.406485
vt 0.479167 0.406485
vt 0.500000 0.406485
vt 0.520833 0.406485
vt 0.541667 0.406485
vt 0.562500 0.406485
vt 0.583333 0.406485
vt 0.604167 0.406485
vt 0.625000 0.406485
vt 0.375000 0.500470
vt 0.395833 0.500470
vt 0.416667 0.500470
vt 0.437500 0.500470
vt 0.458333 0.500470
vt 0.479167 0.500470
vt 0.500000 0.500470
vt 0.520833 0.500470
vt 0.541667 0.500470
vt 0.562500 0.500470
vt 0.583333 0.500470
vt 0.604167 0.500470
vt 0.625000 0.500470
vt 0.375000 0.594455
vt 0.395833 0.594455
vt 0.416667 0.594455
vt 0.437500 0.594455
vt 0.458333 0.594455
vt 0.479167 0.594455
vt 0.500000 0.594455
vt 0.520833 0.594455
vt 0.541667 0.594455
vt 0.562500 0.594455
vt 0.583333 0.594455
vt 0.604167 0.594455
vt 0.625000 0.594455
vt 0.375000 0.688440
vt 0.395833 0.688440
vt 0.416667 0.688440
vt 0.437500 0.688440
vt 0.458333 0.688440
vt 0.479167 0.688440
vt 0.500000 0.688440
vt 0.520833 0.688440
vt 0.541667 0.688440
vt 0.562500 0.688440
vt 0.583333 0.688440
vt 0.604167 0.688440
vt 0.625000 0.688440
vt 0.635316 0.765625
vt 0.578125 0.708434
vt 0.500000 0.687500
vt 0.421875 0.708434
vt 0.364684 0.765625
vt 0.343750 0.843750
vt 0.364684 0.921875
vt 0.421875 0.979066
vt 0.500000 1.000000
vt 0.578125 0.979066
vt 0.635316 0.921875
vt 0.656250 0.843750
vt 0.500000 0.150000
vt 0.500000 0.837500
vn 0.598264 0.533067 -0.598264
vn 0.598264 0.533067 -0.598264
vn 0.655374 0.375459 -0.655374
vn 0.655374 0.375459 -0.655374
vn 0.218981 0.533067 -0.817244
vn 0.218981 0.533067 -0.817244
vn 0.239885 0.375459 -0.895257
vn 0.239885 0.375459 -0.895257
vn -0.218981 0.533067 -0.817244
vn -0.218981 0.533067 -0.817244
vn -0.239885 0.375460 -0.895257
vn -0.239885 0.375460 -0.895257
vn -0.598264 0.533067 -0.598264
vn -0.598264 0.533067 -0.598264
vn -0.655374 0.375459 -0.655374
vn -0.655374 0.375459 -0.655374
vn -0.817244 0.533067 -0.218981
vn -0.817244 0.533067 -0.218981
vn -0.895257 0.375459 -0.239885
vn -0.895257 0.375459 -0.239885
vn -0.817244 0.533067 0.218981
vn -0.817244 0.533067 0.218981
vn -0.895257 0.375459 0.239885
vn -0.895257 0.375459 0.239885
vn -0.598264 0.533067 0.598264
vn -0.598264 0.533067 0.598264
vn -0.655374 0.375459 0.655374
vn -0.655374 0.375459 0.655374
vn -0.218981 0.533067 0.817244
vn -0.218981 0.533067 0.817244
vn -0.239885 0.375459 0.895257
vn -0.239885 0.375459 0.895257
vn 0.218981 0.533067 0.817244
vn 0.218981 0.533067 0.817244
vn 0.239885 0.375460 0.895257
vn 0.239885 0.375460 0.895257
vn 0.598264 0.533067 0.598264
vn 0.598264 0.533067 0.598264
vn 0.655374 0.375459 0.655374
vn 0.655374 0.375459 0.655374
vn 0.817244 0.533067 0.218981
vn 0.817244 0.533067 0.218981
vn 0.895257 0.375459 0.239885
vn 0.895257 0.375459 0.239885
vn 0.817244 0.533067 -0.218981
vn 0.817244 0.533067 -0.218981
vn 0.895257 0.375459 -0.239885
vn 0.895257 0.375459 -0.239885
vn 0.707107 0.000000 -0.707107
vn 0.707107 0.000000 -0.707107
vn 0.258820 0.000000 -0.965926
vn 0.258820 0.000000 -0.965926
vn -0.258820 0.000000 -0.965926
vn -0.258820 0.000000 -0.965926
vn -0.707107 0.000000 -0.707107
vn -0.707107 0.000000 -0.707107
vn -0.965926 0.000000 -0.258820
vn -0.965926 0.000000 -0.258820
vn -0.965926 0.000000 0.258820
vn -0.965926 0.000000 0.258820
vn -0.707107 0.000000 0.707107
vn -0.707107 0.000000 0.707107
vn -0.258820 0.000000 0.965926
vn -0.258820 0.000000 0.965926
vn 0.258820 0.000000 0.965926
vn 0.258820 0.000000 0.965926
vn 0.707107 0.000000 0.707107
vn 0.707107 0.000000 0.707107
vn 0.965926 0.000000 0.258820
vn 0.965926 0.000000 0.258820
vn 0.965926 0.000000 -0.258820
vn 0.965926 0.000000 -0.258820
vn 0.655374 -0.375459 -0.655374
vn 0.655374 -0.375459 -0.655374
vn 0.239885 -0.375459 -0.895257
vn 0.239885 -0.375459 -0.895257
vn -0.239885 -0.375459 -0.895257
vn -0.239885 -0.375459 -0.895257
vn -0.655374 -0.375459 -0.655374
vn -0.655374 -0.375459 -0.655374
vn -0.895257 -0.375459 -0.239885
vn -0.895257 -0.375459 -0.239885
vn -0.895257 -0.375459 0.239885
vn -0.895257 -0.375459 0.239885
vn -0.655374 -0.375459 0.655374
vn -0.655374 -0.375459 0.655374
vn -0.239885 -0.375459 0.895257
vn -0.239885 -0.375459 0.895257
vn 0.239885 -0.375459 0.895257
vn 0.239885 -0.375459 0.895257
vn 0.655374 -0.375459 0.655374
vn 0.655374 -0.375459 0.655374
vn 0.895257 -0.375459 0.239885
vn 0.895257 -0.375459 0.239885
vn 0.895257 -0.375459 -0.239885
vn 0.895257 -0.375459 -0.239885
vn 0.598264 -0.533067 -0.598264
vn 0.598264 -0.533067 -0.598264
vn 0.218981 -0.533067 -0.817244
vn 0.218981 -0.533067 -0.817244
vn -0.218981 -0.533067 -0.817244
vn -0.218981 -0.533067 -0.817244
vn -0.598264 -0.533067 -0.598264
vn -0.598264 -0.533067 -0.598264
vn -0.817244 -0.533067 -0.218981
vn -0.817244 -0.533067 -0.218981
vn -0.817244 -0.533067 0.218981
vn -0.817244 -0.533067 0.218981
vn -0.598264 -0.533067 0.598264
vn -0.598264 -0.533067 0.598264
vn -0.218981 -0.533067 0.817244
vn -0.218981 -0.533067 0.817244
vn 0.218981 -0.533067 0.817244
vn 0.218981 -0.533067 0.817244
vn 0.598264 -0.533067 0.598264
vn 0.598264 -0.533067 0.598264
vn 0.817244 -0.533067 0.218981
vn 0.817244 -0.533067 0.218981
vn 0.817244 -0.533067 -0.218981
vn 0.817244 -0.533067 -0.218981
vn 0.000000 -1.000000 0.000000
vn 0.000000 -1.000000 -0.000000
vn 0.000000 -1.000000 0.000000
vn 0.000000 -1.000000 0.000000
vn 0.000000 -1.000000 0.000000
vn 0.000000 -1.000000 0.000000
vn 0.000000 -1.000000 0.000000
vn 0.000000 -1.000000 0.000000
vn 0.000000 -1.000000 -0.000000
vn 0.000000 -1.000000 0.000000
vn 0.000000 -1.000000 -0.000000
vn 0.000000 -1.000000 -0.000000
vn 0.000000 -1.000000 0.000000
vn 0.000000 1.000000 0.000000
vn 0.000000 1.000000 0.000000
vn 0.000000 1.000000 -0.000000
vn 0.000000 1.000000 0.000000
vn 0.000000 1.000000 0.000000
vn 0.000000 1.000000 -0.000000
vn 0.000000 1.000000 0.000000
vn 0.000000 1.000000 -0.000000
vn 0.000000 1.000000 -0.000000
vn 0.000000 1.000000 0.000000
vn 0.000000 1.000000 -0.000000
vn 0.000000 1.000000 0.000000
vn 0.000000 1.000000 0.000000
s 1
g pCylinder2
usemtl lambert2SG
f 1/13/1 2/14/2 14/27/3 13/26/4
s 2
f 2/14/5 3/15/6 15/28/7 14/27/8
s 3
f 3/15/9 4/16/10 16/29/11 15/28/12
s 4
f 4/16/13 5/17/14 17/30/15 16/29/16
s 5
f 5/17/17 6/18/18 18/31/19 17/30/20
s 6
f 6/18/21 7/19/22 19/32/23 18/31/24
s 7
f 7/19/25 8/20/26 20/33/27 19/32/28
s 8
f 8/20/29 9/21/30 21/34/31 20/33/32
s 9
f 9/21/33 10/22/34 22/35/35 21/34/36
s 10
f 10/22/37 11/23/38 23/36/39 22/35/40
s 11
f 11/23/41 12/24/42 24/37/43 23/36/44
s 12
f 12/24/45 1/25/46 13/38/47 24/37/48
s 1
f 13/26/4 14/27/3 26/40/49 25/39/50
s 2
f 14/27/8 15/28/7 27/41/51 26/40/52
s 3
f 15/28/12 16/29/11 28/42/53 27/41/54
s 4
f 16/29/16 17/30/15 29/43/55 28/42/56
s 5
f 17/30/20 18/31/19 30/44/57 29/43/58
s 6
f 18/31/24 19/32/23 31/45/59 30/44/60
s 7
f 19/32/28 20/33/27 32/46/61 31/45/62
s 8
f 20/33/32 21/34/31 33/47/63 32/46/64
s 9
f 21/34/36 22/35/35 34/48/65 33/47/66
s 10
f 22/35/40 23/36/39 35/49/67 34/48/68
s 11
f 23/36/44 24/37/43 36/50/69 35/49/70
s 12
f 24/37/48 13/38/47 25/51/71 36/50/72
s 1
f 25/39/50 26/40/49 38/53/73 37/52/74
s 2
f 26/40/52 27/41/51 39/54/75 38/53/76
s 3
f 27/41/54 28/42/53 40/55/77 39/54/78
s 4
f 28/42/56 29/43/55 41/56/79 40/55/80
s 5
f 29/43/58 30/44/57 42/57/81 41/56/82
s 6
f 30/44/60 31/45/59 43/58/83 42/57/84
s 7
f 31/45/62 32/46/61 44/59/85 43/58/86
s 8
f 32/46/64 33/47/63 45/60/87 44/59/88
s 9
f 33/47/66 34/48/65 46/61/89 45/60/90
s 10
f 34/48/68 35/49/67 47/62/91 46/61/92
s 11
f 35/49/70 36/50/69 48/63/93 47/62/94
s 12
f 36/50/72 25/51/71 37/64/95 48/63/96
s 1
f 37/52/74 38/53/73 50/66/97 49/65/98
s 2
f 38/53/76 39/54/75 51/67/99 50/66/100
s 3
f 39/54/78 40/55/77 52/68/101 51/67/102
s 4
f 40/55/80 41/56/79 53/69/103 52/68/104
s 5
f 41/56/82 42/57/81 54/70/105 53/69/106
s 6
f 42/57/84 43/58/83 55/71/107 54/70/108
s 7
f 43/58/86 44/59/85 56/72/109 55/71/110
s 8
f 44/59/88 45/60/87 57/73/111 56/72/112
s 9
f 45/60/90 46/61/89 58/74/113 57/73/114
s 10
f 46/61/92 47/62/91 59/75/115 58/74/116
s 11
f 47/62/94 48/63/93 60/76/117 59/75/118
s 12
f 48/63/96 37/64/95 49/77/119 60/76/120
s 13
f 2/2/121 1/1/122 61/90/123
f 3/3/124 2/2/121 61/90/123
f 4/4/125 3/3/124 61/90/123
f 5/5/126 4/4/125 61/90/123
f 6/6/127 5/5/126 61/90/123
f 7/7/128 6/6/127 61/90/123
f 8/8/129 7/7/128 61/90/123
f 9/9/130 8/8/129 61/90/123
f 10/10/131 9/9/130 61/90/123
f 11/11/132 10/10/131 61/90/123
f 12/12/133 11/11/132 61/90/123
f 1/1/122 12/12/133 61/90/123
s 14
f 49/88/134 50/87/135 62/91/136
f 50/87/135 51/86/137 62/91/136
f 51/86/137 52/85/138 62/91/136
f 52/85/138 53/84/139 62/91/136
f 53/84/139 54/83/140 62/91/136
f 54/83/140 55/82/141 62/91/136
f 55/82/141 56/81/142 62/91/136
f 56/81/142 57/80/143 62/91/136
f 57/80/143 58/79/144 62/91/136
f 58/79/144 59/78/145 62/91/136
f 59/78/145 60/89/146 62/91/136
f 60/89/146 49/88/134 62/91/136
