# This file uses centimeters as units for non-parametric coordinates.

mtllib brainV7.mtl
g default
v -8.210512 -6.978916 0.000002
v -7.501423 -6.978916 -3.191831
v -5.087691 -6.978916 -5.366868
v -2.044109 -6.814412 -5.366868
v -1.135072 -7.225672 -3.191832
v -0.915584 -7.225672 -0.000000
v -9.542146 -5.415858 0.000003
v -8.264412 -5.415858 -3.696548
v -5.408859 -5.177609 -5.831412
v -1.581764 -5.050015 -5.776931
v -0.882354 -5.045964 -3.696550
v 0.318313 -4.554811 -0.000000
v -10.381927 -4.792958 0.327456
v -8.873652 -4.792958 -3.841874
v -5.349030 -4.537875 -6.066555
v -1.457783 -4.452848 -6.066556
v 0.775035 -4.563998 0.058370
v 5.157123 -3.356930 -0.000000
v -10.381927 -2.054214 0.000003
v -8.873652 -2.054214 -4.035299
v -5.106511 -2.054214 -6.529251
v -0.597167 -2.054214 -6.529254
v 3.778007 -2.350528 -4.232175
v 6.591513 -1.660645 -0.000000
v -8.814591 1.307908 0.000002
v -7.536856 1.307908 -3.633074
v -4.191703 1.307908 -5.878440
v -0.654159 1.307908 -5.852176
v 4.398060 0.619792 -4.175505
v 5.574134 0.506643 -0.000000
v -5.837124 3.228306 0.000002
v -5.128035 3.228306 -2.777882
v -3.271613 3.228306 -4.494709
v -0.976952 3.228306 -4.494709
v 0.879469 3.228306 -2.777883
v 1.588559 3.228306 -0.000000
v -4.425482 -8.083218 -0.000000
v -2.124282 3.855567 0.000000
v -5.159918 -2.862048 -6.577009
v -7.179971 2.435653 0.000002
v -6.214420 2.435653 -3.163577
v -3.686577 2.435653 -5.118776
v -0.853660 2.435653 -5.118777
v 2.485766 2.244692 -3.641913
v 3.745735 2.159638 -0.000000
v 3.376160 -3.928035 -3.360701
v 2.064602 -0.267083 -5.618684
v -0.646944 -0.231150 -6.224822
v 2.391778 -1.379359 -5.748108
v 5.738359 -1.694106 -2.386371
v 4.029399 -0.425658 -4.534789
v 2.488891 0.419379 -5.321397
v 2.433233 -3.199592 -5.147192
v 3.601222 -3.381203 -2.022095
v 2.539918 -2.201026 -5.615080
v -8.210512 -6.978916 -0.000002
v -7.501423 -6.978916 3.191831
v -5.087691 -6.978916 5.366868
v -2.044109 -6.814412 5.366868
v -1.135072 -7.225672 3.191832
v -0.915584 -7.225672 0.000000
v -9.542146 -5.415858 -0.000003
v -8.264412 -5.415858 3.696548
v -5.408859 -5.177609 5.831412
v -1.581764 -5.050015 5.776931
v -0.882354 -5.045964 3.696550
v 0.318313 -4.554811 0.000000
v -10.381927 -4.792958 -0.327456
v -8.873652 -4.792958 3.841874
v -5.349030 -4.537875 6.066555
v -1.457783 -4.452848 6.066556
v 0.775035 -4.563998 -0.058370
v 5.157123 -3.356930 0.000000
v -10.381927 -2.054214 -0.000003
v -8.873652 -2.054214 4.035299
v -5.106511 -2.054214 6.529251
v -0.597167 -2.054214 6.529254
v 3.778007 -2.350528 4.232175
v 6.591513 -1.660645 0.000000
v -8.814591 1.307908 -0.000002
v -7.536856 1.307908 3.633074
v -4.191703 1.307908 5.878440
v -0.654159 1.307908 5.852176
v 4.398060 0.619792 4.175505
v 5.574134 0.506643 0.000000
v -5.837124 3.228306 -0.000002
v -5.128035 3.228306 2.777882
v -3.271613 3.228306 4.494709
v -0.976952 3.228306 4.494709
v 0.879469 3.228306 2.777883
v 1.588559 3.228306 0.000000
v -4.425482 -8.083218 0.000000
v -2.124282 3.855567 0.000000
v -5.159918 -2.862048 6.577009
v -7.179971 2.435653 -0.000002
v -6.214420 2.435653 3.163577
v -3.686577 2.435653 5.118776
v -0.853660 2.435653 5.118777
v 2.485766 2.244692 3.641913
v 3.745735 2.159638 0.000000
v 3.376160 -3.928035 3.360701
v 2.064602 -0.267083 5.618684
v -0.646944 -0.231150 6.224822
v 2.391778 -1.379359 5.748108
v 5.738359 -1.694106 2.386371
v 4.029399 -0.425658 4.534789
v 2.488891 0.419379 5.321397
v 2.433233 -3.199592 5.147192
v 3.601222 -3.381203 2.022095
v 2.539918 -2.201026 5.615080
vt 0.237453 0.429333
vt 0.286777 0.430763
vt 0.293026 0.449619
vt 0.230730 0.455415
vt 0.894735 0.732458
vt 0.861835 0.725576
vt 0.851294 0.741612
vt 0.891025 0.745069
vt 0.815208 0.715977
vt 0.794244 0.737573
vt 0.343404 0.078723
vt 0.325131 0.071055
vt 0.325243 0.107111
vt 0.343275 0.105057
vt 0.325131 0.071055
vt 0.279550 0.077900
vt 0.278980 0.123955
vt 0.334748 0.102344
vt 0.230730 0.455415
vt 0.293026 0.449619
vt 0.289756 0.470917
vt 0.231011 0.466364
vt 0.836994 0.774518
vt 0.905829 0.772775
vt 0.737644 0.753540
vt 0.820350 0.486717
vt 0.837408 0.486584
vt 0.836724 0.502903
vt 0.818364 0.493210
vt 0.837408 0.486584
vt 0.853690 0.477547
vt 0.845627 0.503679
vt 0.231011 0.466364
vt 0.289756 0.470917
vt 0.297107 0.502211
vt 0.234134 0.509301
vt 0.823800 0.816139
vt 0.820074 0.827894
vt 0.905585 0.831865
vt 0.746263 0.818155
vt 0.705655 0.775195
vt 0.709099 0.806334
vt 0.283879 0.169232
vt 0.318762 0.166287
vt 0.288159 0.133492
vt 0.234134 0.509301
vt 0.297107 0.502211
vt 0.288530 0.538603
vt 0.230176 0.539621
vt 0.804698 0.878029
vt 0.842852 0.884898
vt 0.742879 0.842350
vt 0.738240 0.869658
vt 0.708953 0.834603
vt 0.698068 0.839368
vt 0.340438 0.190568
vt 0.282442 0.182406
vt 0.288785 0.199286
vt 0.339624 0.200871
vt 0.230176 0.539621
vt 0.288530 0.538603
vt 0.282076 0.545307
vt 0.230878 0.546274
vt 0.781412 0.891559
vt 0.825139 0.892419
vt 0.730628 0.882148
vt 0.671573 0.850967
vt 0.684099 0.861696
vt 0.339624 0.200871
vt 0.288785 0.199286
vt 0.282648 0.220772
vt 0.326170 0.218539
vt 0.833766 0.396224
vt 0.799374 0.392746
vt 0.801731 0.426501
vt 0.859947 0.408684
vt 0.876081 0.428315
vt 0.871995 0.455950
vt 0.807320 0.454773
vt 0.229042 0.774150
vt 0.275505 0.775947
vt 0.231754 0.821786
vt 0.290509 0.810535
vt 0.232995 0.821900
vt 0.295315 0.832107
vt 0.232355 0.823210
vt 0.276746 0.852779
vt 0.231036 0.824128
vt 0.233751 0.857904
vt 0.230533 0.824277
vt 0.230176 0.760118
vt 0.280166 0.756569
vt 0.306545 0.807920
vt 0.305689 0.835869
vt 0.298204 0.861190
vt 0.232198 0.877014
vt 0.353327 0.160448
vt 0.342378 0.141030
vt 0.322886 0.145907
vt 0.722969 0.828424
vt 0.671254 0.794297
vt 0.667999 0.822006
vt 0.671254 0.794297
vt 0.338615 0.188768
vt 0.300385 0.169546
vt 0.334146 0.178198
vt 0.674903 0.870876
vt 0.651905 0.849820
vt 0.661042 0.832980
vt 0.648583 0.766231
vt 0.642932 0.831833
vt 0.654427 0.776801
vt 0.689988 0.754720
vt 0.671254 0.794297
vt 0.856442 0.509215
vt 0.816954 0.543672
vt 0.838954 0.552131
vt 0.823918 0.563906
vt 0.785690 0.545477
vt 0.813581 0.548702
vt 0.788150 0.519731
vt 0.856442 0.509215
vt 0.853690 0.477547
vt 0.870598 0.475111
vt 0.671254 0.794297
vt 0.671254 0.794297
vt 0.237453 0.429333
vt 0.286777 0.430763
vt 0.293026 0.449619
vt 0.230730 0.455415
vt 0.894735 0.732458
vt 0.861835 0.725576
vt 0.851294 0.741612
vt 0.891025 0.745069
vt 0.815208 0.715977
vt 0.794244 0.737573
vt 0.343404 0.078723
vt 0.325131 0.071055
vt 0.325243 0.107111
vt 0.343275 0.105057
vt 0.325131 0.071055
vt 0.279550 0.077900
vt 0.278980 0.123955
vt 0.334748 0.102344
vt 0.230730 0.455415
vt 0.293026 0.449619
vt 0.289756 0.470917
vt 0.231011 0.466364
vt 0.836994 0.774518
vt 0.905829 0.772775
vt 0.737644 0.753540
vt 0.820350 0.486717
vt 0.837408 0.486584
vt 0.836724 0.502903
vt 0.818364 0.493210
vt 0.837408 0.486584
vt 0.853690 0.477547
vt 0.845627 0.503679
vt 0.231011 0.466364
vt 0.289756 0.470917
vt 0.297107 0.502211
vt 0.234134 0.509301
vt 0.823800 0.816139
vt 0.820074 0.827894
vt 0.905585 0.831865
vt 0.746263 0.818155
vt 0.705655 0.775195
vt 0.709099 0.806334
vt 0.283879 0.169232
vt 0.318762 0.166287
vt 0.288159 0.133492
vt 0.234134 0.509301
vt 0.297107 0.502211
vt 0.288530 0.538603
vt 0.230176 0.539621
vt 0.804698 0.878029
vt 0.842852 0.884898
vt 0.742879 0.842350
vt 0.738240 0.869658
vt 0.708953 0.834603
vt 0.698068 0.839368
vt 0.340438 0.190568
vt 0.282442 0.182406
vt 0.288785 0.199286
vt 0.339624 0.200871
vt 0.230176 0.539621
vt 0.288530 0.538603
vt 0.282076 0.545307
vt 0.230878 0.546274
vt 0.781412 0.891559
vt 0.825139 0.892419
vt 0.730628 0.882148
vt 0.671573 0.850967
vt 0.684099 0.861696
vt 0.339624 0.200871
vt 0.288785 0.199286
vt 0.282648 0.220772
vt 0.326170 0.218539
vt 0.833766 0.396224
vt 0.799374 0.392746
vt 0.801731 0.426501
vt 0.859947 0.408684
vt 0.876081 0.428315
vt 0.871995 0.455950
vt 0.807320 0.454773
vt 0.229042 0.774150
vt 0.275505 0.775947
vt 0.231754 0.821786
vt 0.290509 0.810535
vt 0.232995 0.821900
vt 0.295315 0.832107
vt 0.232355 0.823210
vt 0.276746 0.852779
vt 0.231036 0.824128
vt 0.233751 0.857904
vt 0.230533 0.824277
vt 0.230176 0.760118
vt 0.280166 0.756569
vt 0.306545 0.807920
vt 0.305689 0.835869
vt 0.298204 0.861190
vt 0.232198 0.877014
vt 0.353327 0.160448
vt 0.342378 0.141030
vt 0.322886 0.145907
vt 0.722969 0.828424
vt 0.671254 0.794297
vt 0.667999 0.822006
vt 0.671254 0.794297
vt 0.338615 0.188768
vt 0.300385 0.169546
vt 0.334146 0.178198
vt 0.674903 0.870876
vt 0.651905 0.849820
vt 0.661042 0.832980
vt 0.648583 0.766231
vt 0.642932 0.831833
vt 0.654427 0.776801
vt 0.689988 0.754720
vt 0.671254 0.794297
vt 0.856442 0.509215
vt 0.816954 0.543672
vt 0.838954 0.552131
vt 0.823918 0.563906
vt 0.785690 0.545477
vt 0.813581 0.548702
vt 0.788150 0.519731
vt 0.856442 0.509215
vt 0.853690 0.477547
vt 0.870598 0.475111
vt 0.671254 0.794297
vt 0.671254 0.794297
vn -0.791381 -0.567110 -0.228259
vn -0.791381 -0.567110 -0.228259
vn -0.791381 -0.567110 -0.228259
vn -0.791381 -0.567110 -0.228259
vn -0.571794 -0.391901 -0.720739
vn -0.571794 -0.391901 -0.720739
vn -0.571794 -0.391901 -0.720739
vn -0.571794 -0.391901 -0.720739
vn 0.017853 -0.238850 -0.970892
vn 0.017853 -0.238850 -0.970892
vn 0.017853 -0.238850 -0.970892
vn 0.017853 -0.238850 -0.970892
vn 0.898345 -0.247108 -0.363199
vn 0.898345 -0.247108 -0.363199
vn 0.898345 -0.247108 -0.363199
vn 0.898345 -0.247108 -0.363199
vn 0.936817 -0.304953 -0.171397
vn 0.936817 -0.304953 -0.171397
vn 0.936817 -0.304953 -0.171397
vn 0.936817 -0.304953 -0.171397
vn -0.650870 -0.723342 -0.230531
vn -0.650870 -0.723342 -0.230531
vn -0.650870 -0.723342 -0.230531
vn -0.650870 -0.723342 -0.230531
vn -0.483620 -0.438670 -0.757417
vn -0.483620 -0.438670 -0.757417
vn -0.483620 -0.438670 -0.757417
vn -0.483620 -0.438670 -0.757417
vn 0.017308 -0.392683 -0.919511
vn 0.017308 -0.392683 -0.919511
vn 0.017308 -0.392683 -0.919511
vn 0.017308 -0.392683 -0.919511
vn 0.349703 -0.885317 -0.306466
vn 0.349703 -0.885317 -0.306466
vn 0.349703 -0.885317 -0.306466
vn 0.349703 -0.885317 -0.306466
vn 0.250142 -0.967056 0.047243
vn 0.622015 -0.761302 -0.183074
vn 0.269061 -0.961857 -0.049372
vn -0.938068 -0.032798 -0.344894
vn -0.938068 -0.032798 -0.344894
vn -0.938068 -0.032798 -0.344894
vn -0.938068 -0.032798 -0.344894
vn -0.553479 -0.077551 -0.829244
vn -0.553479 -0.077551 -0.829244
vn -0.553479 -0.077551 -0.829244
vn -0.553479 -0.077551 -0.829244
vn -0.553479 -0.077551 -0.829244
vn 0.025591 -0.188820 -0.981678
vn 0.025591 -0.188820 -0.981678
vn 0.025591 -0.188820 -0.981678
vn 0.025591 -0.188820 -0.981678
vn 0.025591 -0.188820 -0.981678
vn 0.270913 -0.360310 -0.892627
vn 0.467033 -0.415601 -0.780485
vn 0.474008 -0.491437 -0.730621
vn 0.738309 -0.624319 -0.255199
vn 0.738309 -0.624319 -0.255199
vn 0.738309 -0.624319 -0.255199
vn -0.864589 0.392197 -0.314115
vn -0.864589 0.392197 -0.314115
vn -0.864589 0.392197 -0.314115
vn -0.864589 0.392197 -0.314115
vn -0.528750 0.301315 -0.793494
vn -0.528750 0.301315 -0.793494
vn -0.528750 0.301315 -0.793494
vn -0.528750 0.301315 -0.793494
vn -0.004454 0.193207 -0.981148
vn -0.004454 0.193207 -0.981148
vn -0.004454 0.193207 -0.981148
vn -0.004454 0.193207 -0.981148
vn -0.004454 0.193207 -0.981148
vn 0.260942 0.414974 -0.871611
vn 0.402652 0.256340 -0.878727
vn 0.406262 0.176964 -0.896457
vn 0.892169 0.360992 -0.271515
vn 0.892169 0.360992 -0.271515
vn 0.892169 0.360992 -0.271515
vn 0.892169 0.360992 -0.271515
vn -0.576137 0.794925 -0.190158
vn -0.550498 0.817540 -0.169058
vn -0.550498 0.817540 -0.169058
vn -0.576137 0.794925 -0.190158
vn -0.429273 0.674908 -0.600186
vn -0.431581 0.707855 -0.559178
vn -0.431581 0.707855 -0.559178
vn -0.429273 0.674908 -0.600186
vn 0.003439 0.551658 -0.834063
vn 0.001721 0.585629 -0.810578
vn 0.001721 0.585629 -0.810578
vn 0.003439 0.551658 -0.834063
vn 0.336699 0.594436 -0.730260
vn 0.346491 0.692867 -0.632360
vn 0.346491 0.692867 -0.632360
vn 0.336699 0.594436 -0.730260
vn 0.633946 0.752503 -0.178470
vn 0.546705 0.823087 -0.153757
vn 0.546705 0.823087 -0.153757
vn 0.633946 0.752503 -0.178470
vn -0.279538 -0.958124 -0.062102
vn -0.279538 -0.958124 -0.062102
vn -0.279538 -0.958124 -0.062102
vn -0.161908 -0.970310 -0.179676
vn -0.161908 -0.970310 -0.179676
vn -0.161908 -0.970310 -0.179676
vn 0.052796 -0.976808 -0.207505
vn 0.052796 -0.976808 -0.207505
vn 0.052796 -0.976808 -0.207505
vn 0.053660 -0.976841 -0.207129
vn 0.053660 -0.976841 -0.207129
vn 0.053660 -0.976841 -0.207129
vn 0.237309 -0.971297 -0.016319
vn 0.237309 -0.971297 -0.016319
vn 0.237309 -0.971297 -0.016319
vn -0.166433 0.985137 -0.042484
vn -0.166433 0.985137 -0.042484
vn -0.166433 0.985137 -0.042484
vn -0.103200 0.988381 -0.111591
vn -0.103200 0.988381 -0.111591
vn -0.103200 0.988381 -0.111591
vn -0.000000 0.990402 -0.138216
vn -0.000000 0.990402 -0.138216
vn -0.000000 0.990402 -0.138216
vn 0.103200 0.988381 -0.111591
vn 0.103200 0.988381 -0.111591
vn 0.103200 0.988381 -0.111591
vn 0.166433 0.985137 -0.042484
vn 0.166433 0.985137 -0.042484
vn 0.166433 0.985137 -0.042484
vn -0.523971 0.838835 -0.147685
vn -0.523971 0.838835 -0.147685
vn -0.432692 0.738838 -0.516619
vn -0.432692 0.738838 -0.516619
vn -0.000000 0.618599 -0.785707
vn -0.000000 0.618599 -0.785707
vn 0.349573 0.777878 -0.522211
vn 0.349573 0.777878 -0.522211
vn 0.452246 0.882803 -0.127015
vn 0.452246 0.882803 -0.127015
vn 0.809310 -0.393502 -0.436088
vn 0.587271 -0.803846 -0.094571
vn 0.246203 0.030867 -0.968727
vn 0.478339 0.119165 -0.870052
vn 0.532036 -0.041002 -0.845728
vn 0.490457 -0.003199 -0.871459
vn 0.694378 0.068468 -0.716346
vn 0.215459 0.191048 -0.957642
vn 0.584753 -0.725434 -0.363057
vn 0.584753 -0.725434 -0.363057
vn 0.584753 -0.725434 -0.363057
vn 0.766854 -0.050532 -0.639829
vn 0.739104 -0.125217 -0.661850
vn 0.739104 -0.125217 -0.661850
vn 0.428706 0.437035 -0.790703
vn 0.706304 -0.199046 -0.679349
vn 0.356879 -0.558941 -0.748480
vn 0.363338 -0.892020 -0.268862
vn 0.363338 -0.892020 -0.268862
vn 0.460629 -0.817963 -0.344612
vn 0.258529 -0.947622 -0.187550
vn 0.039889 -0.890952 -0.452342
vn -0.791381 -0.567110 0.228259
vn -0.791381 -0.567110 0.228259
vn -0.791381 -0.567110 0.228259
vn -0.791381 -0.567110 0.228259
vn -0.571794 -0.391901 0.720739
vn -0.571794 -0.391901 0.720739
vn -0.571794 -0.391901 0.720739
vn -0.571794 -0.391901 0.720739
vn 0.017853 -0.238850 0.970892
vn 0.017853 -0.238850 0.970892
vn 0.017853 -0.238850 0.970892
vn 0.017853 -0.238850 0.970892
vn 0.898345 -0.247108 0.363199
vn 0.898345 -0.247108 0.363199
vn 0.898345 -0.247108 0.363199
vn 0.898345 -0.247108 0.363199
vn 0.936817 -0.304953 0.171397
vn 0.936817 -0.304953 0.171397
vn 0.936817 -0.304953 0.171397
vn 0.936817 -0.304953 0.171397
vn -0.650870 -0.723342 0.230531
vn -0.650870 -0.723342 0.230531
vn -0.650870 -0.723342 0.230531
vn -0.650870 -0.723342 0.230531
vn -0.483620 -0.438670 0.757417
vn -0.483620 -0.438670 0.757417
vn -0.483620 -0.438670 0.757417
vn -0.483620 -0.438670 0.757417
vn 0.017308 -0.392683 0.919511
vn 0.017308 -0.392683 0.919511
vn 0.017308 -0.392683 0.919511
vn 0.017308 -0.392683 0.919511
vn 0.349703 -0.885317 0.306466
vn 0.349703 -0.885317 0.306466
vn 0.349703 -0.885317 0.306466
vn 0.349703 -0.885317 0.306466
vn 0.250142 -0.967056 -0.047243
vn 0.269061 -0.961857 0.049372
vn 0.622015 -0.761302 0.183074
vn -0.938068 -0.032798 0.344894
vn -0.938068 -0.032798 0.344894
vn -0.938068 -0.032798 0.344894
vn -0.938068 -0.032798 0.344894
vn -0.553479 -0.077551 0.829244
vn -0.553479 -0.077551 0.829244
vn -0.553479 -0.077551 0.829244
vn -0.553479 -0.077551 0.829244
vn -0.553479 -0.077551 0.829244
vn 0.025591 -0.188820 0.981678
vn 0.025591 -0.188820 0.981678
vn 0.025591 -0.188820 0.981678
vn 0.025591 -0.188820 0.981678
vn 0.025591 -0.188820 0.981678
vn 0.270913 -0.360310 0.892627
vn 0.474008 -0.491437 0.730621
vn 0.467033 -0.415601 0.780485
vn 0.738309 -0.624319 0.255199
vn 0.738309 -0.624319 0.255199
vn 0.738309 -0.624319 0.255199
vn -0.864589 0.392197 0.314115
vn -0.864589 0.392197 0.314115
vn -0.864589 0.392197 0.314115
vn -0.864589 0.392197 0.314115
vn -0.528750 0.301315 0.793494
vn -0.528750 0.301315 0.793494
vn -0.528750 0.301315 0.793494
vn -0.528750 0.301315 0.793494
vn -0.004454 0.193207 0.981148
vn -0.004454 0.193207 0.981148
vn -0.004454 0.193207 0.981148
vn -0.004454 0.193207 0.981148
vn -0.004454 0.193207 0.981148
vn 0.260942 0.414974 0.871611
vn 0.406262 0.176964 0.896457
vn 0.402652 0.256340 0.878727
vn 0.892169 0.360992 0.271515
vn 0.892169 0.360992 0.271515
vn 0.892169 0.360992 0.271515
vn 0.892169 0.360992 0.271515
vn -0.576137 0.794925 0.190158
vn -0.576137 0.794925 0.190158
vn -0.550498 0.817540 0.169058
vn -0.550498 0.817540 0.169058
vn -0.429273 0.674908 0.600186
vn -0.429273 0.674908 0.600186
vn -0.431581 0.707855 0.559178
vn -0.431581 0.707855 0.559178
vn 0.003439 0.551658 0.834063
vn 0.003439 0.551658 0.834063
vn 0.001721 0.585629 0.810578
vn 0.001721 0.585629 0.810578
vn 0.336699 0.594436 0.730260
vn 0.336699 0.594436 0.730260
vn 0.346491 0.692867 0.632360
vn 0.346491 0.692867 0.632360
vn 0.633946 0.752503 0.178469
vn 0.633946 0.752503 0.178469
vn 0.546705 0.823087 0.153757
vn 0.546705 0.823087 0.153757
vn -0.279538 -0.958124 0.062102
vn -0.279538 -0.958124 0.062102
vn -0.279538 -0.958124 0.062102
vn -0.161908 -0.970310 0.179676
vn -0.161908 -0.970310 0.179676
vn -0.161908 -0.970310 0.179676
vn 0.052796 -0.976808 0.207505
vn 0.052796 -0.976808 0.207505
vn 0.052796 -0.976808 0.207505
vn 0.053660 -0.976841 0.207129
vn 0.053660 -0.976841 0.207129
vn 0.053660 -0.976841 0.207129
vn 0.237309 -0.971297 0.016319
vn 0.237309 -0.971297 0.016319
vn 0.237309 -0.971297 0.016319
vn -0.166433 0.985137 0.042484
vn -0.166433 0.985137 0.042484
vn -0.166433 0.985137 0.042484
vn -0.103200 0.988381 0.111591
vn -0.103200 0.988381 0.111591
vn -0.103200 0.988381 0.111591
vn -0.000000 0.990402 0.138216
vn -0.000000 0.990402 0.138216
vn -0.000000 0.990402 0.138216
vn 0.103200 0.988381 0.111591
vn 0.103200 0.988381 0.111591
vn 0.103200 0.988381 0.111591
vn 0.166433 0.985137 0.042484
vn 0.166433 0.985137 0.042484
vn 0.166433 0.985137 0.042484
vn -0.523971 0.838835 0.147685
vn -0.523971 0.838835 0.147685
vn -0.432692 0.738838 0.516619
vn -0.432692 0.738838 0.516619
vn -0.000000 0.618599 0.785707
vn -0.000000 0.618599 0.785707
vn 0.349573 0.777878 0.522212
vn 0.349573 0.777878 0.522212
vn 0.452246 0.882803 0.127015
vn 0.452246 0.882803 0.127015
vn 0.809310 -0.393502 0.436088
vn 0.587271 -0.803846 0.094571
vn 0.246203 0.030867 0.968727
vn 0.532036 -0.041002 0.845728
vn 0.478339 0.119165 0.870052
vn 0.694378 0.068468 0.716346
vn 0.490457 -0.003199 0.871459
vn 0.215459 0.191048 0.957642
vn 0.584753 -0.725433 0.363057
vn 0.584753 -0.725433 0.363057
vn 0.584753 -0.725433 0.363057
vn 0.766854 -0.050533 0.639829
vn 0.739104 -0.125217 0.661851
vn 0.739104 -0.125217 0.661851
vn 0.428706 0.437035 0.790703
vn 0.706304 -0.199046 0.679349
vn 0.356879 -0.558941 0.748480
vn 0.363338 -0.892020 0.268862
vn 0.460629 -0.817963 0.344612
vn 0.363338 -0.892020 0.268862
vn 0.258529 -0.947622 0.187550
vn 0.039889 -0.890952 0.452342
s off
g polySurface4
usemtl file12SG
f 1/1/1 7/4/2 8/3/3 2/2/4
f 2/5/5 8/8/6 9/7/7 3/6/8
f 3/6/9 9/7/10 10/10/11 4/9/12
f 4/11/13 10/14/14 11/13/15 5/12/16
f 5/15/17 11/18/18 12/17/19 6/16/20
f 7/19/21 13/22/22 14/21/23 8/20/24
f 8/8/25 14/24/26 15/23/27 9/7/28
f 9/7/29 15/23/30 16/25/31 10/10/32
f 10/26/33 16/29/34 46/28/35 11/27/36
s 10
f 11/30/37 46/32/38 12/31/39
s off
f 13/33/40 19/36/41 20/35/42 14/34/43
f 14/24/44 20/39/45 21/38/46 39/37/47 15/23/48
f 15/23/49 39/37/50 21/38/51 22/40/52 16/25/53
s 10
f 22/40/54 55/42/55 53/41/56
s off
f 24/43/57 18/45/58 50/44/59
f 19/46/60 25/49/61 26/48/62 20/47/63
f 20/39/64 26/51/65 27/50/66 21/38/67
f 21/38/68 27/50/69 28/53/70 48/52/71 22/40/72
s 18
f 28/53/73 52/55/74 47/54/75
s off
f 50/56/76 29/59/77 30/58/78 24/57/79
s 20
f 25/60/80 40/63/81 41/62/82 26/61/83
s 21
f 26/51/84 41/65/85 42/64/86 27/50/87
s 22
f 27/50/88 42/64/89 43/66/90 28/53/91
s 23
f 28/53/92 43/66/93 44/68/94 29/67/95
s 24
f 29/69/96 44/72/97 45/71/98 30/70/99
s off
f 2/73/100 37/75/101 1/74/102
f 3/76/103 37/75/104 2/73/105
f 4/77/106 37/75/107 3/76/108
f 5/78/109 37/75/110 4/77/111
f 6/79/112 37/75/113 5/78/114
f 31/80/115 38/82/116 32/81/117
f 32/81/118 38/84/119 33/83/120
f 33/83/121 38/86/122 34/85/123
f 34/85/124 38/88/125 35/87/126
f 35/87/127 38/90/128 36/89/129
s 20
f 40/91/81 31/80/130 32/81/131 41/92/82
s 21
f 41/92/85 32/81/132 33/83/133 42/93/86
s 22
f 42/93/89 33/83/134 34/85/135 43/94/90
s 23
f 43/94/93 34/85/136 35/87/137 44/95/94
s 24
f 44/95/97 35/87/138 36/89/139 45/96/98
s 10
f 23/97/140 54/99/141 46/98/38
s 18
f 22/40/142 49/100/143 55/42/144
f 47/54/75 52/55/74 51/102/145 23/101/146
f 22/40/142 48/52/147 49/100/143
f 48/52/147 28/53/73 47/54/75
f 49/100/143 47/54/75 23/103/146
f 48/52/147 47/54/75 49/100/143
s off
f 23/104/148 50/106/149 18/105/150
s 36
f 29/107/151 50/109/152 51/108/153
s 18
f 28/53/73 29/67/154 52/55/74
f 52/55/74 29/67/154 51/102/145
s 36
f 50/110/152 23/112/155 51/111/153
s 10
f 16/25/156 53/41/56 46/113/38
f 53/41/56 23/114/140 46/113/38
f 16/25/156 22/40/54 53/41/56
f 46/32/38 54/115/141 12/31/39
s 37
f 18/116/157 54/118/158 23/117/159
f 18/119/157 17/121/160 54/120/158
s 10
f 54/122/141 17/124/161 12/123/39
f 55/42/55 23/125/140 53/41/56
s 18
f 49/100/143 23/126/146 55/42/144
s off
f 56/127/162 57/128/163 63/129/164 62/130/165
f 57/131/166 58/132/167 64/133/168 63/134/169
f 58/132/170 59/135/171 65/136/172 64/133/173
f 59/137/174 60/138/175 66/139/176 65/140/177
f 60/141/178 61/142/179 67/143/180 66/144/181
f 62/145/182 63/146/183 69/147/184 68/148/185
f 63/134/186 64/133/187 70/149/188 69/150/189
f 64/133/190 65/136/191 71/151/192 70/149/193
f 65/152/194 66/153/195 101/154/196 71/155/197
s 47
f 66/156/198 67/157/199 101/158/200
s off
f 68/159/201 69/160/202 75/161/203 74/162/204
f 69/150/205 70/149/206 94/163/207 76/164/208 75/165/209
f 70/149/210 71/151/211 77/166/212 76/164/213 94/163/214
s 47
f 77/166/215 108/167/216 110/168/217
s off
f 79/169/218 105/170/219 73/171/220
f 74/172/221 75/173/222 81/174/223 80/175/224
f 75/165/225 76/164/226 82/176/227 81/177/228
f 76/164/229 77/166/230 103/178/231 83/179/232 82/176/233
s 55
f 83/179/234 102/180/235 107/181/236
s off
f 105/182/237 79/183/238 85/184/239 84/185/240
s 57
f 80/186/241 81/187/242 96/188/243 95/189/244
s 58
f 81/177/245 82/176/246 97/190/247 96/191/248
s 59
f 82/176/249 83/179/250 98/192/251 97/190/252
s 60
f 83/179/253 84/193/254 99/194/255 98/192/256
s 61
f 84/195/257 85/196/258 100/197/259 99/198/260
s off
f 57/199/261 56/200/262 92/201/263
f 58/202/264 57/199/265 92/201/266
f 59/203/267 58/202/268 92/201/269
f 60/204/270 59/203/271 92/201/272
f 61/205/273 60/204/274 92/201/275
f 86/206/276 87/207/277 93/208/278
f 87/207/279 88/209/280 93/210/281
f 88/209/282 89/211/283 93/212/284
f 89/211/285 90/213/286 93/214/287
f 90/213/288 91/215/289 93/216/290
s 57
f 95/217/244 96/218/243 87/207/291 86/206/292
s 58
f 96/218/248 97/219/247 88/209/293 87/207/294
s 59
f 97/219/252 98/220/251 89/211/295 88/209/296
s 60
f 98/220/256 99/221/255 90/213/297 89/211/298
s 61
f 99/221/260 100/222/259 91/215/299 90/213/300
s 47
f 78/223/301 101/224/200 109/225/302
s 55
f 77/166/303 110/168/304 104/226/305
f 102/180/235 78/227/306 106/228/307 107/181/236
f 77/166/303 104/226/305 103/178/308
f 103/178/308 102/180/235 83/179/234
f 104/226/305 78/229/306 102/180/235
f 103/178/308 104/226/305 102/180/235
s off
f 78/230/309 73/231/310 105/232/311
s 73
f 84/233/312 106/234/313 105/235/314
s 55
f 83/179/234 107/181/236 84/193/315
f 107/181/236 106/228/307 84/193/315
s 73
f 105/236/314 106/237/313 78/238/316
s 47
f 71/151/317 101/239/200 108/167/216
f 108/167/216 101/239/200 78/240/301
f 71/151/317 108/167/216 77/166/215
f 101/158/200 67/157/199 109/241/302
s 74
f 73/242/318 78/243/319 109/244/320
f 73/245/318 109/246/320 72/247/321
s 47
f 109/248/302 67/249/199 72/250/322
f 110/168/217 108/167/216 78/251/301
s 55
f 104/226/305 110/168/304 78/252/306
